<svg width="1800" height="800" viewBox="0 0 1800 800" fill="none" xmlns="http://www.w3.org/2000/svg">
<path d="M2.74707 9.18734C1.28891 4.31018 10.3282 0 22.0147 0H1737.71C1747.5 0 1755.76 3.06412 1756.98 7.14904L1770.64 52.8529L1787.1 100.901L1799.58 138.1C1799.86 138.921 1800 139.781 1800 140.646V177.166C1800 177.573 1799.93 177.98 1799.78 178.383L1787.1 213.814L1770.64 254.655L1755.16 289.956C1754.95 290.445 1754.84 290.941 1754.84 291.438L1754.84 326.135C1754.84 326.529 1754.91 326.922 1755.04 327.312L1770.64 372.372L1786.61 414.325C1786.93 415.18 1786.93 416.051 1786.61 416.907L1770.64 458.859L1755.25 503.328C1754.98 504.108 1754.98 504.901 1755.25 505.681L1770.64 550.15L1787.1 598.198L1799.63 635.528C1799.87 636.264 1799.88 637.01 1799.65 637.746L1787.1 677.477L1770.64 718.318L1755.04 763.379C1754.91 763.768 1754.84 764.162 1754.84 764.556L1754.84 791.832C1754.84 796.343 1746.15 800 1735.42 800H19.4202C8.69525 800 0.000970709 796.343 0.000832951 791.832L1.60198e-09 764.556C-1.20275e-05 764.162 0.0677208 763.768 0.202668 763.379L15.8023 718.318L32.2586 677.477L44.8111 637.746C45.0437 637.01 45.0365 636.264 44.7896 635.528L32.2585 598.198L15.8019 550.15L0.4079 505.681C0.137701 504.901 0.137705 504.108 0.40791 503.328L15.8023 458.859L31.7671 416.907C32.0925 416.051 32.0925 415.18 31.7671 414.325L15.8023 372.372L0.203118 327.312C0.0681926 326.922 0.00046399 326.529 0.000461864 326.135L0.0002745 291.438C0.000271817 290.941 0.108089 290.445 0.322385 289.956L15.8019 254.655L32.2583 213.814L44.9451 178.383C45.0893 177.98 45.1617 177.573 45.1617 177.166L45.1616 140.646C45.1616 139.781 45.0211 138.921 44.7457 138.1L32.2583 100.901L15.802 52.8529L2.74707 9.18734Z" fill="#CFCEBC"/>
</svg>
