<svg width="800" height="800" viewBox="0 0 800 800" fill="none" xmlns="http://www.w3.org/2000/svg">
<path d="M1.22092 9.18734C0.572851 4.31018 4.5903 0 9.7843 0H772.315C776.665 0 780.336 3.06412 780.879 7.14904L786.951 52.8529L794.265 100.901L799.912 138.752C799.971 139.143 800 139.538 800 139.933V177.166C800 177.573 799.968 177.98 799.904 178.383L794.265 213.814L786.951 254.655L780.072 289.956C779.976 290.445 779.928 290.941 779.928 291.438L779.929 326.135C779.929 326.529 779.959 326.922 780.019 327.312L786.952 372.372L794.047 414.325C794.192 415.18 794.192 416.051 794.047 416.907L786.952 458.859L780.11 503.328C779.99 504.108 779.99 504.901 780.11 505.681L786.951 550.15L794.265 598.198L799.835 635.528C799.944 636.264 799.948 637.01 799.844 637.746L794.265 677.477L786.952 718.318L780.019 763.379C779.959 763.768 779.928 764.162 779.929 764.556L779.929 791.832C779.929 796.343 776.065 800 771.298 800H8.63118C3.86455 800 0.000431426 796.343 0.0003702 791.832L7.11991e-10 764.556C-5.34556e-06 764.162 0.0300981 763.768 0.0900748 763.379L7.02324 718.318L14.3371 677.477L19.916 637.746C20.0194 637.01 20.0162 636.264 19.9065 635.528L14.3371 598.198L7.02307 550.15L0.181289 505.681C0.0612006 504.901 0.0612021 504.108 0.181293 503.328L7.02324 458.859L14.1187 416.907C14.2633 416.051 14.2633 415.18 14.1187 414.325L7.02324 372.372L0.0902746 327.312C0.0303078 326.922 0.000206218 326.529 0.000205273 326.135L0.000122 291.438C0.000120807 290.941 0.0480396 290.445 0.143282 289.956L7.02308 254.655L14.337 213.814L19.9756 178.383C20.0397 177.98 20.0719 177.573 20.0719 177.166L20.0718 139.933C20.0718 139.538 20.0425 139.143 19.9842 138.752L14.337 100.901L7.02313 52.8529L1.22092 9.18734Z" fill="#CFCEBC"/>
</svg>
